<svg width="41" height="41" viewBox="0 0 41 41" fill="none" xmlns="http://www.w3.org/2000/svg">
<path d="M37.925 0H3.075C2.25946 0 1.47732 0.323972 0.900647 0.900647C0.323972 1.47732 0 2.25946 0 3.075V37.925C0 38.7405 0.323972 39.5227 0.900647 40.0994C1.47732 40.676 2.25946 41 3.075 41H37.925C38.7405 41 39.5227 40.676 40.0994 40.0994C40.676 39.5227 41 38.7405 41 37.925V3.075C41 2.25946 40.676 1.47732 40.0994 0.900647C39.5227 0.323972 38.7405 0 37.925 0ZM12.3 34.85H6.15V16.4H12.3V34.85ZM9.225 12.8125C8.52017 12.7924 7.83691 12.565 7.26059 12.1587C6.68427 11.7525 6.24044 11.1854 5.98456 10.5283C5.72868 9.87129 5.67209 9.15341 5.82188 8.46439C5.97166 7.77537 6.32117 7.14576 6.82673 6.65424C7.33229 6.16273 7.97149 5.83109 8.66446 5.70077C9.35742 5.57045 10.0734 5.64723 10.723 5.92151C11.3726 6.19579 11.9269 6.65542 12.3168 7.24296C12.7066 7.83049 12.9147 8.51989 12.915 9.225C12.8988 10.1892 12.5016 11.1078 11.8102 11.7801C11.1187 12.4523 10.1893 12.8235 9.225 12.8125ZM34.85 34.85H28.7V25.133C28.7 22.222 27.47 21.1765 25.871 21.1765C25.4022 21.2077 24.9442 21.3312 24.5232 21.54C24.1023 21.7487 23.7267 22.0386 23.4181 22.3929C23.1096 22.7472 22.874 23.159 22.725 23.6046C22.576 24.0502 22.5166 24.5208 22.55 24.9895C22.5398 25.0849 22.5398 25.1811 22.55 25.2765V34.85H16.4V16.4H22.345V19.065C22.9447 18.1528 23.7686 17.4098 24.7377 16.9072C25.7069 16.4047 26.7889 16.1595 27.88 16.195C31.0575 16.195 34.768 17.958 34.768 23.698L34.85 34.85Z" fill="#0A66C2"/>
</svg>
