<svg width="24" height="24" viewBox="0 0 24 24" fill="none" xmlns="http://www.w3.org/2000/svg">
<path d="M16 4H8C6.14348 4 4.36301 4.7375 3.05025 6.05025C1.7375 7.36301 1 9.14348 1 11C1 12.8565 1.7375 14.637 3.05025 15.9497C4.36301 17.2625 6.14348 18 8 18H12V22L20.16 16.61C21.0512 15.9738 21.7751 15.1311 22.2697 14.1541C22.7643 13.1772 23.0148 12.0949 23 11C23 9.14348 22.2625 7.36301 20.9497 6.05025C19.637 4.7375 17.8565 4 16 4ZM8 12.25C7.75277 12.25 7.5111 12.1767 7.30554 12.0393C7.09998 11.902 6.93976 11.7068 6.84515 11.4784C6.75054 11.2499 6.72579 10.9986 6.77402 10.7561C6.82225 10.5137 6.9413 10.2909 7.11612 10.1161C7.29093 9.9413 7.51366 9.82225 7.75614 9.77402C7.99861 9.72579 8.24995 9.75054 8.47835 9.84515C8.70676 9.93976 8.90199 10.1 9.03934 10.3055C9.17669 10.5111 9.25 10.7528 9.25 11C9.25 11.3315 9.1183 11.6495 8.88388 11.8839C8.64946 12.1183 8.33152 12.25 8 12.25ZM12 12.25C11.7528 12.25 11.5111 12.1767 11.3055 12.0393C11.1 11.902 10.9398 11.7068 10.8452 11.4784C10.7505 11.2499 10.7258 10.9986 10.774 10.7561C10.8222 10.5137 10.9413 10.2909 11.1161 10.1161C11.2909 9.9413 11.5137 9.82225 11.7561 9.77402C11.9986 9.72579 12.2499 9.75054 12.4784 9.84515C12.7068 9.93976 12.902 10.1 13.0393 10.3055C13.1767 10.5111 13.25 10.7528 13.25 11C13.25 11.3315 13.1183 11.6495 12.8839 11.8839C12.6495 12.1183 12.3315 12.25 12 12.25ZM16 12.25C15.7528 12.25 15.5111 12.1767 15.3055 12.0393C15.1 11.902 14.9398 11.7068 14.8452 11.4784C14.7505 11.2499 14.7258 10.9986 14.774 10.7561C14.8222 10.5137 14.9413 10.2909 15.1161 10.1161C15.2909 9.9413 15.5137 9.82225 15.7561 9.77402C15.9986 9.72579 16.2499 9.75054 16.4784 9.84515C16.7068 9.93976 16.902 10.1 17.0393 10.3055C17.1767 10.5111 17.25 10.7528 17.25 11C17.25 11.3315 17.1183 11.6495 16.8839 11.8839C16.6495 12.1183 16.3315 12.25 16 12.25Z" fill="#666666"/>
</svg>
