<svg width="24" height="24" viewBox="0 0 24 24" fill="none" xmlns="http://www.w3.org/2000/svg">
<path d="M12 16V22H3V16C3 15.2044 3.31607 14.4413 3.87868 13.8787C4.44129 13.3161 5.20435 13 6 13H9C9.79565 13 10.5587 13.3161 11.1213 13.8787C11.6839 14.4413 12 15.2044 12 16ZM17.5 13C18.1922 13 18.8689 12.7947 19.4445 12.4102C20.0201 12.0256 20.4687 11.4789 20.7336 10.8394C20.9985 10.1999 21.0678 9.49613 20.9328 8.81719C20.7977 8.13826 20.4644 7.51462 19.9749 7.02514C19.4854 6.53565 18.8618 6.20231 18.1828 6.06726C17.5039 5.93221 16.8002 6.00153 16.1606 6.26643C15.5211 6.53134 14.9744 6.97994 14.5899 7.55552C14.2053 8.13109 14 8.80778 14 9.50001C14 10.4283 14.3688 11.3185 15.0251 11.9749C15.6815 12.6313 16.5717 13 17.5 13ZM18.5 15H16.5C15.837 15 15.2011 15.2634 14.7322 15.7322C14.2634 16.2011 14 16.837 14 17.5V22H21V17.5C21 16.837 20.7366 16.2011 20.2678 15.7322C19.7989 15.2634 19.163 15 18.5 15ZM7.5 2.00001C6.60999 2.00001 5.73996 2.26393 4.99994 2.7584C4.25991 3.25286 3.68314 3.95567 3.34254 4.77794C3.00195 5.6002 2.91283 6.505 3.08647 7.37792C3.2601 8.25083 3.68868 9.05265 4.31802 9.68199C4.94736 10.3113 5.74918 10.7399 6.6221 10.9135C7.49501 11.0872 8.39981 10.9981 9.22208 10.6575C10.0443 10.3169 10.7471 9.7401 11.2416 9.00008C11.7361 8.26006 12 7.39003 12 6.50001C12.0013 5.90869 11.8858 5.32294 11.6601 4.77638C11.4345 4.22982 11.103 3.73322 10.6849 3.31509C10.2668 2.89696 9.7702 2.56555 9.22364 2.33987C8.67708 2.11419 8.09132 1.99869 7.5 2.00001Z" fill="#666666"/>
</svg>
