<svg width="24" height="24" viewBox="0 0 24 24" fill="none" xmlns="http://www.w3.org/2000/svg">
<path d="M17 6V5C17 4.20435 16.6839 3.44129 16.1213 2.87868C15.5587 2.31607 14.7956 2 14 2H10C9.20435 2 8.44129 2.31607 7.87868 2.87868C7.31607 3.44129 7 4.20435 7 5V6H2V10C2 10.7956 2.31607 11.5587 2.87868 12.1213C3.44129 12.6839 4.20435 13 5 13H19C19.7956 13 20.5587 12.6839 21.1213 12.1213C21.6839 11.5587 22 10.7956 22 10V6H17ZM9 5C9 4.73478 9.10536 4.48043 9.29289 4.29289C9.48043 4.10536 9.73478 4 10 4H14C14.2652 4 14.5196 4.10536 14.7071 4.29289C14.8946 4.48043 15 4.73478 15 5V6H9V5ZM19 14C19.5695 13.9968 20.1317 13.872 20.6491 13.634C21.1664 13.396 21.627 13.0503 22 12.62V17C22 17.7956 21.6839 18.5587 21.1213 19.1213C20.5587 19.6839 19.7956 20 19 20H5C4.20435 20 3.44129 19.6839 2.87868 19.1213C2.31607 18.5587 2 17.7956 2 17V12.62C2.373 13.0503 2.83358 13.396 3.35095 13.634C3.86831 13.872 4.43053 13.9968 5 14H19Z" fill="#666666"/>
</svg>
