<svg width="24" height="24" viewBox="0 0 24 24" fill="none" xmlns="http://www.w3.org/2000/svg">
<path opacity="0.75" d="M12 17.13C10.6799 17.0717 9.43328 16.5062 8.51979 15.5515C7.6063 14.5968 7.09644 13.3264 7.09644 12.005C7.09644 10.6836 7.6063 9.41324 8.51979 8.4585C9.43328 7.50377 10.6799 6.93833 12 6.88V4C10.4178 4 8.87103 4.46919 7.55544 5.34824C6.23985 6.22729 5.21447 7.47672 4.60897 8.93853C4.00347 10.4003 3.84504 12.0089 4.15372 13.5607C4.4624 15.1126 5.22433 16.538 6.34315 17.6569C7.46197 18.7757 8.88743 19.5376 10.4393 19.8463C11.9911 20.155 13.5997 19.9965 15.0615 19.391C16.5233 18.7855 17.7727 17.7602 18.6518 16.4446C19.5308 15.129 20 13.5823 20 12H17.13C17.13 13.3606 16.5895 14.6654 15.6275 15.6275C14.6654 16.5895 13.3606 17.13 12 17.13Z" fill="#666666"/>
<path d="M23.31 6.34L18.36 5.63L17.66 0.690002L14.12 4.22L14.47 6.7L10.58 10.59C10.2047 10.9653 9.9939 11.4743 9.9939 12.005C9.9939 12.5357 10.2047 13.0447 10.58 13.42C10.9553 13.7953 11.4643 14.0061 11.995 14.0061C12.5257 14.0061 13.0347 13.7953 13.41 13.42L17.3 9.53L19.78 9.88L23.31 6.34Z" fill="#4B4545"/>
</svg>
